<svg width="20" height="20" viewBox="0 0 20 20" fill="none" xmlns="http://www.w3.org/2000/svg">
<path d="M10.3807 16.0025L14.742 18.8814C15.3044 19.2502 15.9967 18.7014 15.8323 18.0267L14.5689 12.8628C14.5347 12.7197 14.5402 12.5694 14.5846 12.4294C14.629 12.2893 14.7105 12.1651 14.8198 12.0711L18.7311 8.67952C19.2416 8.2387 18.982 7.34806 18.3157 7.30308L13.2103 6.96122C13.071 6.95279 12.9371 6.90236 12.8249 6.81609C12.7128 6.72981 12.6272 6.61143 12.5787 6.47541L10.6749 1.49145C10.6246 1.34742 10.5328 1.223 10.412 1.13508C10.2913 1.04716 10.1474 1 10 1C9.85258 1 9.70874 1.04716 9.58799 1.13508C9.46724 1.223 9.37544 1.34742 9.32505 1.49145L7.42135 6.47541C7.37283 6.61143 7.28725 6.72981 7.17507 6.81609C7.06289 6.90236 6.92896 6.95279 6.78966 6.96122L1.68428 7.30308C1.01798 7.34806 0.758383 8.2387 1.26892 8.67952L5.18017 12.0711C5.28949 12.1651 5.37105 12.2893 5.41544 12.4294C5.45984 12.5694 5.46527 12.7197 5.43111 12.8628L4.26293 17.6489C4.06391 18.4585 4.89461 19.1153 5.56091 18.6744L9.61926 16.0025C9.73306 15.9273 9.86514 15.8873 10 15.8873C10.1349 15.8873 10.2669 15.9273 10.3807 16.0025Z" fill="#3E3E3E" stroke="#3E3E3E" stroke-width="0.5" stroke-linecap="round" stroke-linejoin="round"/>
</svg>
